<mxfile host="65bd71144e">
    <diagram id="mk_sEhH0-rT4Mkz3eChy" name="PÃ¡gina-1">
        <mxGraphModel dx="484" dy="430" grid="1" gridSize="10" guides="1" tooltips="1" connect="1" arrows="1" fold="1" page="1" pageScale="1" pageWidth="827" pageHeight="1169" math="0" shadow="0">
            <root>
                <mxCell id="0"/>
                <mxCell id="1" parent="0"/>
                <mxCell id="5" value="" style="rounded=0;whiteSpace=wrap;html=1;" vertex="1" parent="1">
                    <mxGeometry x="120" y="120" width="350" height="200" as="geometry"/>
                </mxCell>
                <mxCell id="2" value="&lt;div style=&quot;text-align: center&quot;&gt;&lt;span&gt;AireAcondicionado&lt;/span&gt;&lt;/div&gt;&lt;br&gt;- opcion: string&lt;br&gt;- marca: string&lt;br&gt;- velocidad: int&lt;br&gt;- temperatura: int&lt;br&gt;--&lt;br&gt;+ &amp;lt;&amp;lt;constructor&amp;gt;&amp;gt;encender(velocidad: int, temperatura: int)&lt;br&gt;+ apagar()&lt;br&gt;+ subirTemperatura(temperatura: int)&lt;br&gt;+ bajarTemperatura(temperatura: int)&lt;br&gt;+ subirVelocidad(velocidad: int)&lt;br&gt;+ bajarVelocidad(velocidad: int)" style="text;whiteSpace=wrap;html=1;" vertex="1" parent="1">
                    <mxGeometry x="130" y="120" width="340" height="200" as="geometry"/>
                </mxCell>
                <mxCell id="3" value="" style="endArrow=none;html=1;exitX=0;exitY=0.5;exitDx=0;exitDy=0;entryX=1;entryY=0.5;entryDx=0;entryDy=0;" edge="1" parent="1" source="2" target="2">
                    <mxGeometry width="50" height="50" relative="1" as="geometry">
                        <mxPoint x="260" y="250" as="sourcePoint"/>
                        <mxPoint x="310" y="200" as="targetPoint"/>
                    </mxGeometry>
                </mxCell>
                <mxCell id="4" value="" style="endArrow=none;html=1;exitX=0.004;exitY=0.133;exitDx=0;exitDy=0;exitPerimeter=0;entryX=1.01;entryY=0.127;entryDx=0;entryDy=0;entryPerimeter=0;" edge="1" parent="1" source="5" target="2">
                    <mxGeometry width="50" height="50" relative="1" as="geometry">
                        <mxPoint x="260" y="250" as="sourcePoint"/>
                        <mxPoint x="470" y="150" as="targetPoint"/>
                    </mxGeometry>
                </mxCell>
            </root>
        </mxGraphModel>
    </diagram>
</mxfile>